<svg width="1208" height="234" viewBox="0 0 1208 234" fill="none" xmlns="http://www.w3.org/2000/svg">
<g clip-path="url(#clip0_1710_800)">
<path d="M367.305 79.2747C365.184 79.2747 363.409 77.6942 363.021 75.6091C361.915 69.6712 360.066 64.6783 357.473 60.6306C353.975 55.3868 349.603 51.5998 344.355 49.2693C339.304 46.7447 332.794 45.4821 324.827 45.4821C311.613 45.4821 302.381 48.2983 297.134 53.9304C292.083 58.9797 289.555 66.2626 289.555 75.7788C289.555 81.2167 290.333 85.6835 291.889 89.1792C293.442 92.4809 295.774 95.1997 298.884 97.3361C303.547 100.638 311.223 102.774 321.911 103.745C332.794 104.716 341.927 106.27 349.312 108.406C356.891 110.348 363.498 113.067 369.133 116.563C383.319 125.496 390.411 139.479 390.411 158.512C390.411 165.892 388.954 172.883 386.039 179.487C383.125 186.09 379.044 192.013 373.796 197.257C367.579 203.277 360.194 207.744 351.643 210.657C343.287 213.57 334.544 215.027 325.409 215.027C304.81 215.027 288.389 209.201 276.147 197.548C266.497 187.904 260.379 175.303 257.797 159.746C257.432 157.548 259.161 155.592 261.389 155.585L279.76 155.354C281.866 155.327 283.652 156.863 284.084 158.924C285.863 167.416 289.144 173.882 293.927 178.321C301.506 185.313 311.71 188.808 324.534 188.808C336.779 188.808 346.493 185.992 353.684 180.36C360.875 174.728 364.47 167.445 364.47 158.512C364.47 154.434 363.886 150.938 362.72 148.025C361.748 144.917 359.806 142.198 356.891 139.868C350.284 134.818 337.944 131.614 319.871 130.254C301.409 128.701 287.419 123.36 277.896 114.232C268.374 105.104 263.613 92.2865 263.613 75.7788C263.613 59.0769 268.764 45.5793 279.062 35.2863C289.945 24.4105 305.103 18.9727 324.534 18.9727C344.745 18.9727 360.485 25.0902 371.756 37.3254C380.749 47.0174 386.543 59.4275 389.136 74.5557C389.564 77.0531 387.593 79.2747 385.058 79.2747H367.305Z" fill="#131622"/>
<path d="M436.851 151.521C436.324 151.521 435.658 151.191 435.31 151.585C434.197 152.839 438.1 161.64 441.009 166.087C444.508 171.136 448.491 175.409 452.96 178.904C461.123 185.313 470.644 188.518 481.526 188.518C497.633 188.518 510.957 181.276 521.502 166.793C522.83 164.967 525.326 164.372 527.268 165.521L542.245 174.383C544.277 175.586 544.933 178.23 543.605 180.183C536.472 190.677 527.926 198.893 517.962 204.831C506.886 211.435 494.741 214.736 481.526 214.736C471.616 214.736 462.192 212.892 453.251 209.201C444.312 205.317 436.442 199.976 429.641 193.179C422.84 186.382 417.496 178.516 413.609 169.582C409.917 160.649 408.07 151.23 408.07 141.325C408.07 131.42 409.917 122.001 413.609 113.068C417.496 103.94 422.84 95.9772 429.641 89.1798C436.249 82.3826 444.021 77.1389 452.96 73.4489C462.095 69.7589 471.616 67.9141 481.526 67.9141C491.437 67.9141 500.863 69.7589 509.802 73.4489C518.934 77.1389 526.806 82.3826 533.413 89.1798C547.794 103.94 554.982 121.03 554.982 140.451C554.982 142.323 554.732 145.363 554.5 147.785C554.295 149.916 552.493 151.521 550.351 151.521H436.851ZM481.526 91.8017C473.56 91.8017 466.077 93.5495 459.082 97.0454C452.085 100.541 446.45 105.202 442.175 111.028C438.998 115.413 437.058 120.033 436.354 124.888C436.021 127.192 437.941 129.09 440.271 129.09H522.784C525.111 129.09 527.034 127.192 526.686 124.889C525.948 120.033 523.916 115.413 520.587 111.028C516.506 105.202 510.967 100.541 503.972 97.0454C496.975 93.5495 489.495 91.8017 481.526 91.8017Z" fill="#131622"/>
<path d="M648.323 214.736C638.413 214.736 628.989 212.892 620.05 209.201C611.305 205.317 603.532 199.976 596.729 193.179C590.122 186.576 584.877 178.807 580.989 169.874C577.298 160.746 575.451 151.23 575.451 141.325C575.451 131.42 577.298 122.001 580.989 113.068C584.877 103.94 590.122 96.0744 596.729 89.4712C603.532 82.6738 611.305 77.4303 620.05 73.7402C628.989 69.856 638.413 67.9141 648.323 67.9141C669.722 67.9141 688.071 76.3684 703.377 93.2773C705.125 95.2077 704.57 98.2282 702.316 99.5287L686.768 108.492C685.078 109.467 682.951 109.141 681.536 107.797C671.958 98.6872 660.886 94.1322 648.323 94.1322C641.912 94.1322 635.79 95.3945 629.961 97.9192C624.326 100.25 619.369 103.551 615.094 107.824C610.818 112.097 607.418 117.146 604.892 122.972C602.367 128.799 601.102 134.916 601.102 141.325C601.102 147.734 602.367 153.852 604.892 159.678C607.418 165.504 610.818 170.553 615.094 174.826C619.369 179.099 624.326 182.497 629.961 185.022C635.79 187.353 641.912 188.518 648.323 188.518C660.886 188.518 671.958 183.963 681.536 174.853C682.951 173.509 685.078 173.183 686.768 174.157L702.316 183.121C704.57 184.422 705.125 187.442 703.377 189.373C688.071 206.282 669.722 214.736 648.323 214.736Z" fill="#131622"/>
<path d="M794.944 214.738C785.034 214.738 775.61 212.796 766.669 208.911C757.73 205.027 749.86 199.686 743.059 192.889C736.258 186.091 730.914 178.226 727.026 169.292C723.141 160.359 721.197 150.94 721.197 141.035C721.197 130.936 723.141 121.323 727.026 112.195C730.914 103.067 736.258 95.1045 743.059 88.3073C749.86 81.5099 757.73 76.2662 766.669 72.5764C775.61 68.6922 785.034 66.75 794.944 66.75C805.049 66.75 814.669 68.6922 823.801 72.5764C832.936 76.2662 840.903 81.5099 847.704 88.3073C854.505 95.1045 859.753 103.067 863.446 112.195C867.332 121.323 869.275 130.936 869.275 141.035C869.275 150.94 867.332 160.359 863.446 169.292C859.753 178.226 854.505 186.091 847.704 192.889C840.903 199.686 832.936 205.027 823.801 208.911C814.669 212.796 805.049 214.738 794.944 214.738ZM794.944 92.677C781.924 92.677 770.751 97.338 761.424 106.66C756.952 111.127 753.455 116.37 750.929 122.391C748.404 128.411 747.141 134.626 747.141 141.035C747.141 147.444 748.404 153.561 750.929 159.388C753.455 165.214 756.952 170.361 761.424 174.827C765.893 179.294 770.944 182.79 776.58 185.315C782.411 187.839 788.531 189.102 794.944 189.102C801.357 189.102 807.577 187.839 813.6 185.315C819.625 182.79 824.773 179.294 829.049 174.827C833.324 170.361 836.725 165.214 839.252 159.388C841.778 153.561 843.041 147.444 843.041 141.035C843.041 134.626 841.778 128.411 839.252 122.391C836.725 116.37 833.324 111.127 829.049 106.66C824.773 102.193 819.625 98.7945 813.6 96.464C807.771 93.9393 801.551 92.677 794.944 92.677Z" fill="#131622"/>
<path d="M1013.22 213.28C1010.89 213.28 1009.01 211.391 1009.01 209.064V202.396C1009.01 198.464 1003.87 196.487 1000.89 199.042C996.622 202.688 991.944 205.783 986.853 208.328C978.496 212.599 969.751 214.737 960.618 214.737C950.317 214.737 940.7 212.892 931.759 209.202C922.82 205.317 915.047 199.88 908.44 192.888C901.639 185.896 896.295 177.934 892.409 169C888.716 159.872 886.871 150.259 886.871 140.16C886.871 130.061 888.716 120.545 892.409 111.612C896.295 102.484 901.639 94.4239 908.44 87.4324C915.047 80.4409 922.82 75.1002 931.759 71.4101C940.7 67.526 950.317 65.584 960.618 65.584C970.723 65.584 979.855 67.6231 988.018 71.7015C992.604 73.9401 996.782 76.6469 1000.55 79.8219C1003.61 82.4035 1009.01 80.3951 1009.01 76.3891V24.0639C1009.01 21.7353 1010.89 19.8477 1013.22 19.8477H1030.44C1032.77 19.8477 1034.66 21.7353 1034.66 24.0639V209.064C1034.66 211.391 1032.77 213.28 1030.44 213.28H1013.22ZM960.618 92.0934C954.205 92.0934 948.083 93.3558 942.254 95.8804C936.424 98.211 931.371 101.61 927.096 106.077C922.82 110.543 919.42 115.787 916.894 121.807C914.368 127.634 913.103 133.751 913.103 140.16C913.103 153.172 917.769 164.533 927.096 174.244C931.371 178.711 936.424 182.206 942.254 184.731C948.083 187.256 954.205 188.518 960.618 188.518C967.031 188.518 973.151 187.256 978.981 184.731C985.006 182.206 990.156 178.711 994.432 174.244C1003.76 164.533 1008.42 153.172 1008.42 140.16C1008.42 133.751 1007.16 127.634 1004.63 121.807C1002.11 115.787 998.705 110.543 994.432 106.077C990.156 101.61 985.006 98.211 978.981 95.8804C973.151 93.3558 967.031 92.0934 960.618 92.0934Z" fill="#131622"/>
<path d="M1185.98 213.278C1183.65 213.278 1181.77 211.389 1181.77 209.061V202.453C1181.77 198.549 1176.73 196.581 1173.76 199.124C1169.59 202.709 1165.06 205.776 1160.19 208.325C1152.03 212.597 1143.39 214.734 1134.25 214.734C1124.15 214.734 1114.63 212.89 1105.69 209.199C1096.94 205.509 1089.17 200.265 1082.37 193.468C1075.56 186.865 1070.22 179.097 1066.34 170.163C1062.64 161.035 1060.8 151.519 1060.8 141.614C1060.8 131.71 1062.64 122.29 1066.34 113.357C1070.22 104.229 1075.56 96.2665 1082.37 89.4691C1089.17 82.6717 1096.94 77.4282 1105.69 73.7382C1114.63 70.0481 1124.15 68.2031 1134.25 68.2031C1143.58 68.2031 1152.32 70.1453 1160.49 74.0295C1165.24 76.2373 1169.58 78.9473 1173.51 82.1594C1176.57 84.6531 1181.77 82.6456 1181.77 78.7028V75.3325C1181.77 73.0039 1183.65 71.1163 1185.98 71.1163H1203.78C1206.11 71.1163 1208 73.0039 1208 75.3325V209.061C1208 211.389 1206.11 213.278 1203.78 213.278H1185.98ZM1134.25 94.1301C1127.84 94.1301 1121.62 95.3924 1115.6 97.9171C1109.77 100.248 1104.71 103.549 1100.44 107.822C1096.16 112.095 1092.76 117.241 1090.24 123.261C1087.9 129.088 1086.74 135.205 1086.74 141.614C1086.74 148.023 1087.9 154.141 1090.24 159.967C1092.76 165.793 1096.16 170.843 1100.44 175.115C1104.71 179.388 1109.77 182.787 1115.6 185.311C1121.62 187.642 1127.84 188.807 1134.25 188.807C1140.67 188.807 1146.79 187.642 1152.62 185.311C1158.45 182.787 1163.5 179.388 1167.77 175.115C1172.05 170.843 1175.35 165.793 1177.68 159.967C1180.21 154.141 1181.47 148.023 1181.47 141.614C1181.47 135.205 1180.21 129.088 1177.68 123.261C1175.35 117.241 1172.05 112.095 1167.77 107.822C1163.5 103.549 1158.45 100.248 1152.62 97.9171C1146.79 95.3924 1140.67 94.1301 1134.25 94.1301Z" fill="#131622"/>
<path d="M69.0304 93.4646C57.8479 89.9578 51.5937 77.947 55.0613 66.6379C58.5286 55.3287 70.4048 49.0037 81.5871 52.5106C92.7696 56.0172 99.0238 68.0279 95.5562 79.3371C92.0889 90.6463 80.2128 96.9712 69.0304 93.4646Z" fill="#EC7345"/>
<path d="M140.6 27.0161C140.744 26.9107 140.939 26.7768 141.174 26.6221C146.814 22.9171 152.837 25.4384 157.83 29.9607C162.823 34.483 162.873 38.7684 156.507 40.9555C155.017 41.4674 153.814 41.9111 153.391 42.2202L86.863 90.9103C85.3457 92.0181 83.8326 91.1363 82.7507 89.6206L75.0189 78.7902C73.9369 77.2747 74.2896 75.1478 75.8069 74.0402L140.6 27.0161Z" fill="#EC7345"/>
<path fill-rule="evenodd" clip-rule="evenodd" d="M189.464 51.2853C181.86 41.0277 169.552 37.201 158.892 40.1503C153.665 41.5962 147.498 40.9374 144.256 36.565C141.015 32.1926 141.878 25.8621 146.805 23.5767C166.813 14.2954 191.281 20.7459 205.121 39.4149C218.961 58.0839 218.223 83.6439 203.803 100.465C200.253 104.606 194.002 103.669 190.761 99.2968C187.519 94.9244 188.623 88.7523 191.461 84.0843C197.249 74.5634 197.068 61.5429 189.464 51.2853Z" fill="#EC7345"/>
<path d="M140.83 67.1261C144.297 55.8172 156.173 49.492 167.356 52.9988C178.538 56.5055 184.792 68.516 181.325 79.8251C177.858 91.1341 165.981 97.4593 154.799 93.9526C143.617 90.4458 137.362 78.4353 140.83 67.1261Z" fill="#EC7345"/>
<path d="M206.524 139.527C210.676 145.343 208.703 152.737 205.577 159.198L205.088 160.208C201.64 167.332 197.429 167.891 194.658 160.493C193.222 156.657 191.948 153.105 191.49 152.463L143.343 85.1825C142.248 83.648 143.12 82.1179 144.618 81.0236L155.328 73.2046C156.826 72.1105 158.929 72.4672 160.025 74.0017L206.524 139.527Z" fill="#EC7345"/>
<path fill-rule="evenodd" clip-rule="evenodd" d="M182.524 188.946C192.685 181.242 196.465 168.764 193.519 157.971C192.085 152.718 192.756 146.506 197.08 143.228C201.403 139.95 207.645 140.799 209.897 145.748C219.112 165.994 212.739 190.771 194.262 204.78C175.785 218.789 150.481 218.028 133.848 203.406C129.783 199.832 130.726 193.535 135.049 190.257C139.373 186.979 145.457 188.07 150.041 190.934C159.46 196.82 172.363 196.65 182.524 188.946Z" fill="#EC7345"/>
<path d="M164.726 140.253C175.909 143.759 182.163 155.77 178.695 167.079C175.228 178.388 163.352 184.713 152.169 181.207C140.987 177.7 134.732 165.689 138.2 154.38C141.668 143.071 153.544 136.746 164.726 140.253Z" fill="#EC7345"/>
<path d="M93.1455 206.697C93.0856 206.74 93.0171 206.789 92.9403 206.842C87.1609 210.841 80.6206 208.365 75.0961 204.051C69.5717 199.737 69.4084 195.441 76.0403 193.175C78.1192 192.465 79.8583 191.854 80.3544 191.493L146.882 142.802C148.399 141.694 149.912 142.576 150.994 144.091L158.726 154.922C159.808 156.438 159.455 158.564 157.938 159.672L93.1455 206.697Z" fill="#EC7345"/>
<path fill-rule="evenodd" clip-rule="evenodd" d="M44.2634 182.427C51.8675 192.685 64.1752 196.512 74.8349 193.562C80.0614 192.116 86.2291 192.775 89.4705 197.147C92.7116 201.52 91.8485 207.85 86.9221 210.136C66.9135 219.417 42.4464 212.966 28.6067 194.297C14.7671 175.628 15.5047 150.068 29.9243 133.247C33.4745 129.105 39.7253 130.043 42.9665 134.415C46.2078 138.787 45.104 144.959 42.2661 149.627C36.4778 159.149 36.6594 172.169 44.2634 182.427Z" fill="#EC7345"/>
<path d="M92.9118 166.591C89.4445 177.9 77.5683 184.225 66.386 180.718C55.2035 177.212 48.9493 165.201 52.4166 153.892C55.8842 142.583 67.7603 136.258 78.9427 139.764C90.1252 143.271 96.3794 155.282 92.9118 166.591Z" fill="#EC7345"/>
<path d="M27.2101 94.1905C23.038 88.3462 25.2912 81.1631 28.9682 74.9625L29.1655 74.6296C32.9725 68.2094 37.2036 67.7924 39.7337 74.8059C40.8493 77.8982 41.8193 80.6594 42.2443 81.2548L90.3906 148.535C91.486 150.07 90.6141 151.6 89.1154 152.694L78.4061 160.513C76.9074 161.608 74.8045 161.251 73.7091 159.716L27.2101 94.1905Z" fill="#EC7345"/>
<path fill-rule="evenodd" clip-rule="evenodd" d="M51.2031 44.7699C41.042 52.4736 37.2627 64.9513 40.2082 75.7448C41.642 80.9982 40.971 87.2101 36.6475 90.488C32.324 93.7659 26.0826 92.9162 23.83 87.9672C14.6147 67.7219 20.9876 42.9449 39.4651 28.9359C57.9426 14.9269 83.2468 15.6873 99.8792 30.3094C103.945 33.8836 103.002 40.1806 98.6782 43.4585C94.3545 46.7364 88.2704 45.646 83.6861 42.7813C74.2671 36.8957 61.3643 37.0661 51.2031 44.7699Z" fill="#EC7345"/>
</g>
<defs>
<clipPath id="clip0_1710_800">
<rect width="1208" height="234" fill="white"/>
</clipPath>
</defs>
</svg>
