<svg width="573" height="111" viewBox="0 0 573 111" fill="none" xmlns="http://www.w3.org/2000/svg">
<path d="M174.227 37.6048C173.221 37.6048 172.379 36.8551 172.195 35.866C171.67 33.0493 170.793 30.6809 169.563 28.7608C167.904 26.2734 165.83 24.477 163.341 23.3715C160.945 22.1739 157.857 21.575 154.078 21.575C147.81 21.575 143.431 22.9109 140.942 25.5825C138.546 27.9777 137.347 31.4324 137.347 35.9465C137.347 38.526 137.716 40.6449 138.454 42.3031C139.191 43.8693 140.297 45.159 141.772 46.1724C143.984 47.7385 147.625 48.7519 152.695 49.2125C157.857 49.6731 162.189 50.4101 165.692 51.4235C169.287 52.3447 172.421 53.6345 175.094 55.2927C181.823 59.5305 185.187 66.1635 185.187 75.1917C185.187 78.6924 184.496 82.0089 183.113 85.1412C181.731 88.2734 179.795 91.0832 177.306 93.5706C174.357 96.4265 170.854 98.5453 166.798 99.9272C162.834 101.309 158.687 102 154.354 102C144.583 102 136.794 99.2363 130.987 93.7088C126.41 89.1339 123.508 83.1567 122.283 75.7772C122.11 74.7343 122.93 73.8067 123.987 73.8032L132.701 73.6936C133.7 73.681 134.547 74.4095 134.752 75.387C135.596 79.4155 137.152 82.4826 139.421 84.5884C143.016 87.9049 147.856 89.5631 153.939 89.5631C159.747 89.5631 164.355 88.2273 167.766 85.5557C171.177 82.8841 172.882 79.4294 172.882 75.1917C172.882 73.2571 172.605 71.5988 172.052 70.217C171.591 68.743 170.67 67.4532 169.287 66.3477C166.153 63.9525 160.3 62.4324 151.727 61.7875C142.97 61.0505 136.334 58.5171 131.817 54.1872C127.3 49.8574 125.042 43.7771 125.042 35.9465C125.042 28.0238 127.485 21.6211 132.37 16.7385C137.532 11.5795 144.722 9 153.939 9C163.526 9 170.992 11.9019 176.338 17.7058C180.604 22.3033 183.352 28.1901 184.582 35.3663C184.785 36.551 183.85 37.6048 182.648 37.6048H174.227Z" fill="#131622"/>
<path d="M207.215 71.8752C206.965 71.8752 206.649 71.7188 206.484 71.9055C205.956 72.5002 207.807 76.6753 209.187 78.7845C210.847 81.1798 212.736 83.2065 214.856 84.8648C218.728 87.9049 223.244 89.425 228.406 89.425C236.046 89.425 242.366 85.9898 247.368 79.1195C247.998 78.2536 249.182 77.971 250.103 78.5164L257.207 82.7199C258.171 83.2905 258.482 84.5449 257.852 85.4715C254.469 90.4492 250.415 94.3465 245.689 97.1635C240.435 100.296 234.674 101.862 228.406 101.862C223.705 101.862 219.235 100.987 214.994 99.2363C210.754 97.3938 207.021 94.8603 203.795 91.636C200.569 88.4116 198.034 84.6805 196.19 80.4428C194.439 76.2051 193.563 71.737 193.563 67.0386C193.563 62.3403 194.439 57.8722 196.19 53.6345C198.034 49.3046 200.569 45.5275 203.795 42.3031C206.929 39.0788 210.616 36.5914 214.856 34.841C219.189 33.0906 223.705 32.2155 228.406 32.2155C233.107 32.2155 237.578 33.0906 241.818 34.841C246.15 36.5914 249.884 39.0788 253.018 42.3031C259.839 49.3046 263.249 57.4116 263.249 66.6241C263.249 67.5119 263.13 68.9542 263.02 70.1029C262.923 71.114 262.068 71.8752 261.052 71.8752H207.215ZM228.406 43.5468C224.627 43.5468 221.078 44.3759 217.76 46.0342C214.441 47.6924 211.768 49.9034 209.74 52.6672C208.233 54.747 207.313 56.9384 206.979 59.2415C206.821 60.3347 207.732 61.2348 208.837 61.2348H247.976C249.08 61.2348 249.992 60.3343 249.827 59.2422C249.477 56.9388 248.513 54.7472 246.934 52.6672C244.998 49.9034 242.371 47.6924 239.053 46.0342C235.734 44.3759 232.186 43.5468 228.406 43.5468Z" fill="#131622"/>
<path d="M307.524 101.862C302.823 101.862 298.353 100.987 294.113 99.2363C289.965 97.3938 286.278 94.8603 283.051 91.636C279.917 88.5037 277.429 84.8187 275.585 80.581C273.834 76.2511 272.958 71.737 272.958 67.0386C272.958 62.3403 273.834 57.8722 275.585 53.6345C277.429 49.3046 279.917 45.5736 283.051 42.4413C286.278 39.2169 289.965 36.7296 294.113 34.9792C298.353 33.1367 302.823 32.2155 307.524 32.2155C317.674 32.2155 326.378 36.2259 333.638 44.2468C334.467 45.1625 334.204 46.5953 333.135 47.2122L325.76 51.4642C324.958 51.9265 323.949 51.772 323.278 51.1342C318.735 46.813 313.483 44.6523 307.524 44.6523C304.483 44.6523 301.579 45.2511 298.814 46.4487C296.141 47.5542 293.79 49.1204 291.762 51.1471C289.734 53.1739 288.121 55.5691 286.923 58.3328C285.725 61.0966 285.125 63.9985 285.125 67.0386C285.125 70.0787 285.725 72.9807 286.923 75.7444C288.121 78.5082 289.734 80.9034 291.762 82.9302C293.79 84.9569 296.141 86.5691 298.814 87.7667C301.579 88.8722 304.483 89.425 307.524 89.425C313.483 89.425 318.735 87.2643 323.278 82.943C323.949 82.3053 324.958 82.1508 325.76 82.613L333.135 86.8651C334.204 87.482 334.467 88.9148 333.638 89.8304C326.378 97.8514 317.674 101.862 307.524 101.862Z" fill="#131622"/>
<path d="M377.072 101.862C372.371 101.862 367.901 100.941 363.66 99.0981C359.42 97.2556 355.687 94.7221 352.461 91.4978C349.235 88.2734 346.7 84.5423 344.856 80.3046C343.013 76.0669 342.091 71.5988 342.091 66.9004C342.091 62.11 343.013 57.5498 344.856 53.2199C346.7 48.8901 349.235 45.1129 352.461 41.8886C355.687 38.6642 359.42 36.1768 363.66 34.4265C367.901 32.584 372.371 31.6627 377.072 31.6627C381.865 31.6627 386.428 32.584 390.76 34.4265C395.093 36.1768 398.872 38.6642 402.098 41.8886C405.324 45.1129 407.813 48.8901 409.565 53.2199C411.408 57.5498 412.33 62.11 412.33 66.9004C412.33 71.5988 411.408 76.0669 409.565 80.3046C407.813 84.5423 405.324 88.2734 402.098 91.4978C398.872 94.7221 395.093 97.2556 390.76 99.0981C386.428 100.941 381.865 101.862 377.072 101.862ZM377.072 43.9614C370.896 43.9614 365.596 46.1724 361.172 50.5943C359.051 52.7132 357.392 55.2006 356.194 58.0565C354.996 60.9123 354.397 63.8603 354.397 66.9004C354.397 69.9406 354.996 72.8425 356.194 75.6062C357.392 78.37 359.051 80.8113 361.172 82.9302C363.292 85.049 365.688 86.7073 368.361 87.9049C371.127 89.1025 374.03 89.7013 377.072 89.7013C380.114 89.7013 383.064 89.1025 385.921 87.9049C388.779 86.7073 391.221 85.049 393.249 82.9302C395.277 80.8113 396.89 78.37 398.089 75.6062C399.287 72.8425 399.886 69.9406 399.886 66.9004C399.886 63.8603 399.287 60.9123 398.089 58.0565C396.89 55.2006 395.277 52.7132 393.249 50.5943C391.221 48.4755 388.779 46.8633 385.921 45.7578C383.156 44.5602 380.206 43.9614 377.072 43.9614Z" fill="#131622"/>
<path d="M480.609 101.171C479.504 101.171 478.609 100.275 478.609 99.1709V96.008C478.609 94.1428 476.175 93.205 474.758 94.4171C472.735 96.1466 470.516 97.6148 468.101 98.8217C464.137 100.848 459.989 101.862 455.657 101.862C450.771 101.862 446.209 100.987 441.968 99.2363C437.728 97.3938 434.041 94.8143 430.907 91.4978C427.681 88.1813 425.146 84.4042 423.303 80.1664C421.551 75.8366 420.676 71.2764 420.676 66.4859C420.676 61.6954 421.551 57.1813 423.303 52.9436C425.146 48.6137 427.681 44.7905 430.907 41.474C434.041 38.1575 437.728 35.6241 441.968 33.8737C446.209 32.0312 450.771 31.11 455.657 31.11C460.45 31.11 464.782 32.0773 468.654 34.0119C470.829 35.0738 472.811 36.3578 474.597 37.8639C476.05 39.0885 478.609 38.1358 478.609 36.2355V11.4146C478.609 10.31 479.504 9.41457 480.609 9.41457H488.776C489.881 9.41457 490.776 10.31 490.776 11.4146V99.1709C490.776 100.275 489.881 101.171 488.776 101.171H480.609ZM455.657 43.685C452.615 43.685 449.711 44.2838 446.946 45.4814C444.181 46.5869 441.784 48.1991 439.756 50.318C437.728 52.4369 436.115 54.9242 434.917 57.7801C433.719 60.5438 433.119 63.4458 433.119 66.4859C433.119 72.6583 435.332 78.0475 439.756 82.6538C441.784 84.7727 444.181 86.4309 446.946 87.6285C449.711 88.8262 452.615 89.425 455.657 89.425C458.699 89.425 461.602 88.8262 464.367 87.6285C467.225 86.4309 469.668 84.7727 471.696 82.6538C476.12 78.0475 478.332 72.6583 478.332 66.4859C478.332 63.4458 477.733 60.5438 476.535 57.7801C475.337 54.9242 473.723 52.4369 471.696 50.318C469.668 48.1991 467.225 46.5869 464.367 45.4814C461.602 44.2838 458.699 43.685 455.657 43.685Z" fill="#131622"/>
<path d="M562.556 101.171C561.452 101.171 560.556 100.275 560.556 99.1709V96.0363C560.556 94.1841 558.166 93.2508 556.761 94.4572C554.779 96.1579 552.634 97.6127 550.324 98.8217C546.453 100.848 542.351 101.862 538.019 101.862C533.226 101.862 528.709 100.987 524.469 99.2363C520.321 97.4859 516.634 94.9985 513.407 91.7741C510.181 88.6419 507.646 84.9569 505.803 80.7192C504.051 76.3893 503.176 71.8752 503.176 67.1768C503.176 62.4785 504.051 58.0104 505.803 53.7727C507.646 49.4428 510.181 45.6657 513.407 42.4413C516.634 39.2169 520.321 36.7296 524.469 34.9792C528.709 33.2288 533.226 32.3536 538.019 32.3536C542.443 32.3536 546.591 33.2749 550.463 35.1174C552.716 36.1647 554.775 37.4502 556.641 38.9739C558.09 40.1568 560.556 39.2045 560.556 37.3342V35.7355C560.556 34.6309 561.452 33.7355 562.556 33.7355H571C572.105 33.7355 573 34.6309 573 35.7355V99.1709C573 100.275 572.105 101.171 571 101.171H562.556ZM538.019 44.6523C534.977 44.6523 532.027 45.2511 529.17 46.4487C526.404 47.5542 524.008 49.1204 521.98 51.1471C519.952 53.1739 518.339 55.6152 517.141 58.471C516.034 61.2348 515.481 64.1367 515.481 67.1768C515.481 70.2169 516.034 73.1189 517.141 75.8826C518.339 78.6464 519.952 81.0416 521.98 83.0684C524.008 85.0951 526.404 86.7073 529.17 87.9049C532.027 89.0104 534.977 89.5631 538.019 89.5631C541.061 89.5631 543.964 89.0104 546.73 87.9049C549.495 86.7073 551.891 85.0951 553.919 83.0684C555.947 81.0416 557.514 78.6464 558.62 75.8826C559.819 73.1189 560.418 70.2169 560.418 67.1768C560.418 64.1367 559.819 61.2348 558.62 58.471C557.514 55.6152 555.947 53.1739 553.919 51.1471C551.891 49.1204 549.495 47.5542 546.73 46.4487C543.964 45.2511 541.061 44.6523 538.019 44.6523Z" fill="#131622"/>
<path d="M32.7439 44.3353C27.4396 42.6718 24.473 36.9744 26.1178 31.6098C27.7625 26.2452 33.3958 23.2449 38.7 24.9084C44.0043 26.5718 46.9709 32.2692 45.3261 37.6338C43.6814 42.9984 38.0481 45.9987 32.7439 44.3353Z" fill="#EC7345"/>
<path d="M66.6918 12.8151C66.7602 12.7651 66.8527 12.7016 66.9644 12.6282C69.6396 10.8707 72.4966 12.0667 74.8648 14.2119C77.2331 16.3571 77.2569 18.3899 74.2373 19.4274C73.5305 19.6702 72.9601 19.8807 72.7592 20.0273L41.2025 43.1239C40.4828 43.6494 39.7651 43.2311 39.2519 42.5121L35.5844 37.3746C35.0712 36.6557 35.2385 35.6468 35.9582 35.1214L66.6918 12.8151Z" fill="#EC7345"/>
<path fill-rule="evenodd" clip-rule="evenodd" d="M89.8695 24.3271C86.2626 19.4613 80.4246 17.6461 75.3682 19.0451C72.8891 19.731 69.9635 19.4185 68.426 17.3444C66.8885 15.2703 67.2979 12.2674 69.6347 11.1833C79.1256 6.78063 90.7314 9.84047 97.2962 18.6963C103.861 27.5521 103.511 39.6767 96.6713 47.6558C94.9873 49.6203 92.0223 49.1759 90.4848 47.1018C88.9473 45.0277 89.4709 42.0999 90.817 39.8856C93.5626 35.3693 93.4765 29.1929 89.8695 24.3271Z" fill="#EC7345"/>
<path d="M66.8009 31.8417C68.4457 26.4772 74.079 23.4768 79.3832 25.1403C84.6875 26.8037 87.6541 32.501 86.0094 37.8656C84.3646 43.2301 78.7313 46.2305 73.427 44.5671C68.1228 42.9036 65.1562 37.2063 66.8009 31.8417Z" fill="#EC7345"/>
<path d="M97.9622 66.1853C99.9315 68.944 98.996 72.4516 97.513 75.5162L97.281 75.9956C95.6457 79.375 93.6484 79.64 92.3339 76.1305C91.6526 74.3113 91.0483 72.626 90.8309 72.3214L67.9931 40.4065C67.4736 39.6786 67.8872 38.9528 68.5981 38.4337L73.6779 34.7247C74.3888 34.2057 75.3863 34.3749 75.9059 35.1028L97.9622 66.1853Z" fill="#EC7345"/>
<path fill-rule="evenodd" clip-rule="evenodd" d="M86.578 89.6284C91.3977 85.974 93.1904 80.0552 91.7932 74.9351C91.1132 72.4432 91.4314 69.4965 93.4822 67.9416C95.533 66.3866 98.4935 66.7897 99.562 69.1373C103.933 78.7409 100.91 90.494 92.1457 97.1394C83.3811 103.785 71.3785 103.424 63.4892 96.4879C61.5606 94.7924 62.0081 91.8054 64.0589 90.2505C66.1097 88.6955 68.9957 89.2128 71.1701 90.5716C75.6379 93.3636 81.7582 93.2828 86.578 89.6284Z" fill="#EC7345"/>
<path d="M78.1356 66.5299C83.4399 68.1933 86.4065 73.8907 84.7617 79.2552C83.1169 84.6198 77.4837 87.6202 72.1794 85.9568C66.8751 84.2933 63.9085 78.596 65.5533 73.2314C67.1981 67.8668 72.8314 64.8664 78.1356 66.5299Z" fill="#EC7345"/>
<path d="M44.1825 98.049C44.1541 98.0697 44.1216 98.0928 44.0852 98.1179C41.3438 100.015 38.2415 98.8402 35.621 96.7938C33.0006 94.7474 32.9231 92.7099 36.0689 91.6349C37.055 91.2979 37.8799 91.0084 38.1152 90.8367L69.6717 67.7398C70.3914 67.2143 71.109 67.6326 71.6223 68.3516L75.2897 73.4891C75.8029 74.2081 75.6356 75.2169 74.9159 75.7424L44.1825 98.049Z" fill="#EC7345"/>
<path fill-rule="evenodd" clip-rule="evenodd" d="M20.9958 86.5356C24.6027 91.4015 30.4407 93.2168 35.497 91.8177C37.9761 91.1318 40.9017 91.4443 42.4392 93.5184C43.9766 95.5925 43.5672 98.5955 41.2304 99.6795C31.7396 104.082 20.1339 101.022 13.5692 92.1665C7.00459 83.3106 7.35444 71.1859 14.1942 63.2067C15.8782 61.2421 18.8432 61.6866 20.3806 63.7607C21.9181 65.8348 21.3945 68.7626 20.0484 70.9769C17.3028 75.4933 17.3889 81.6698 20.9958 86.5356Z" fill="#EC7345"/>
<path d="M44.0716 79.0233C42.4269 84.3879 36.7936 87.3883 31.4894 85.7248C26.1851 84.0613 23.2185 78.3639 24.8632 72.9993C26.508 67.6348 32.1413 64.6344 37.4455 66.2979C42.7498 67.9613 45.7164 73.6587 44.0716 79.0233Z" fill="#EC7345"/>
<path d="M12.9066 44.6792C10.9276 41.9069 11.9964 38.4995 13.7405 35.5582L13.8341 35.4003C15.6399 32.3548 17.6469 32.157 18.847 35.4839C19.3762 36.9508 19.8363 38.2606 20.0379 38.543L42.8755 70.4582C43.3951 71.186 42.9815 71.9119 42.2706 72.4309L37.1908 76.14C36.4799 76.6591 35.4824 76.4898 34.9628 75.7619L12.9066 44.6792Z" fill="#EC7345"/>
<path fill-rule="evenodd" clip-rule="evenodd" d="M24.2874 21.237C19.4676 24.8913 17.6749 30.8102 19.0721 35.9302C19.7522 38.4222 19.4339 41.3689 17.3831 42.9238C15.3323 44.4787 12.3718 44.0756 11.3033 41.728C6.93213 32.1245 9.95504 20.3713 18.7196 13.726C27.4842 7.08069 39.4869 7.44142 47.3763 14.3775C49.3048 16.073 48.8574 19.06 46.8066 20.6149C44.7557 22.1698 41.8698 21.6526 39.6953 20.2937C35.2275 17.5018 29.1072 17.5826 24.2874 21.237Z" fill="#EC7345"/>
</svg>
